# xmcd
#
# Track frame offsets: 
#        150
#        11581
#        22273
#        37136
#        47840
#        60735
#        75167
#        93485
#        122482
#        132443
#        150802
#        162745
#
# Disc length: 2340 seconds
#
# Revision: 0
# Processed by: cddbd v1.5.2PL0 Copyright (c) Steve Scherf et al.
# Submitted via: ExactAudioCopy v0.99pb3
#
DISCID=9509220c
DTITLE=Banda la tunera - El fruto de Mexico
DYEAR=2010
DGENRE=Latin
TTITLE0=Que te pasa?
TTITLE1=Seis rosas amarillas
TTITLE2=Esa pared
TTITLE3=Miraron lorar a un hombre
TTITLE4=Que no se apague la lumbre
TTITLE5=Quiero que seas tu
TTITLE6=Tu fiel amor
TTITLE7=Popurri tunero
TTITLE8=Que es la libertad?
TTITLE9=No queda nada
TTITLE10=En las esquinas de enfente
TTITLE11=Nuestro orgullo pudo mas
EXTD=
EXTT0=
EXTT1=
EXTT2=
EXTT3=
EXTT4=
EXTT5=
EXTT6=
EXTT7=
EXTT8=
EXTT9=
EXTT10=
EXTT11=
PLAYORDER=
